<?xml version="1.0" encoding="utf-8"?>
<!-- Generator: Adobe Illustrator 15.0.2, SVG Export Plug-In . SVG Version: 6.00 Build 0)  -->
<!DOCTYPE svg PUBLIC "-//W3C//DTD SVG 1.1//EN" "http://www.w3.org/Graphics/SVG/1.1/DTD/svg11.dtd">
<svg version="1.1" id="Layer_1" xmlns="http://www.w3.org/2000/svg" xmlns:xlink="http://www.w3.org/1999/xlink" x="0px" y="0px"
	 width="580px" height="80px" viewBox="0 0 580 80" enable-background="new 0 0 580 80" xml:space="preserve">
<g>
	<g>
		<g>
			<path d="M26.466,23.339h9.502l1.877,35.698h-8.802l-1.021-18.842h-0.161L22.117,55.44h-6.442L9.986,40.732H9.771L8.75,59.037H0
				l2.042-35.698h9.609l7.354,20.292h0.213L26.466,23.339z"/>
			<path d="M57.114,59.682c-9.984,0-15.889-6.282-15.889-18.414c0-13.743,8.804-18.574,16.586-18.574
				c8.266,0,15.459,4.938,15.459,18.574C73.271,53.454,66.83,59.682,57.114,59.682z M57.492,52.059
				c4.936,0,6.387-5.207,6.387-10.629c0-4.51-1.182-11.058-6.603-11.058c-4.833,0-6.549,5.206-6.549,10.521
				C50.727,45.885,51.8,52.059,57.492,52.059z"/>
			<path d="M91.843,23.339c6.441,0,12.024,1.88,12.024,9.18c0,3.166-1.717,5.637-4.025,7.299c3.489,1.396,5.797,3.973,5.797,8.214
				c0,7.139-5.153,11.005-14.548,11.005H78.155V23.339H91.843z M87.387,37.404h2.63c3.114,0,4.51-1.666,4.51-3.758
				c0-2.792-1.824-3.597-4.187-3.597h-2.953V37.404z M87.387,52.004h3.436c3.758,0,5.048-1.61,5.048-4.187
				c0-2.629-1.772-3.865-4.78-3.865h-3.704V52.004z"/>
			<path d="M110.198,59.037V23.339h9.234v35.698H110.198z"/>
			<path d="M125.659,23.339h9.286v27.593h14.225v8.105h-23.51V23.339z"/>
			<path d="M153.516,59.037V23.339h9.234v35.698H153.516z"/>
			<path d="M169.727,48.407c2.47,1.557,7.14,3.275,10.2,3.275c1.986,0,3.704-0.643,3.704-3.114c0-2.2-2.309-2.952-5.423-3.864
				c-4.562-1.396-10.252-3.597-10.252-10.79s5.581-11.22,12.991-11.22c5.098,0,9.929,2.255,13.097,5.315l-4.777,6.065
				c-2.845-2.093-5.851-3.649-8.319-3.649c-1.719,0-3.383,0.804-3.383,2.792c0,2.254,2.469,3.059,5.797,4.132
				c4.884,1.557,10.146,3.705,10.146,10.897c0,7.461-5.69,11.435-13.633,11.435c-5.37,0-10.951-2.148-13.26-3.705L169.727,48.407z"
				/>
		</g>
		<g>
			<path fill-rule="evenodd" clip-rule="evenodd" d="M229.004,19.12l-1.274-7.21c-1.38-7.832-8.847-13.062-16.679-11.681
				l-1.318,0.233c-7.834,1.38-13.063,8.85-11.681,16.681l1.27,7.21c1.381,7.832,8.851,13.062,16.684,11.68l1.317-0.232
				C225.155,34.419,230.385,26.951,229.004,19.12z M216.767,32.65l-1.316,0.233c-6.094,1.074-11.904-2.994-12.979-9.089
				l-1.272-7.207c-1.074-6.093,2.995-11.902,9.088-12.978l1.318-0.231c6.093-1.075,11.902,2.994,12.977,9.086l1.271,7.209
				C226.928,25.768,222.86,31.577,216.767,32.65z"/>
			<circle fill-rule="evenodd" clip-rule="evenodd" cx="216.034" cy="13.897" r="1.025"/>
			<path fill-rule="evenodd" clip-rule="evenodd" d="M214.667,8.366h-2.483c-3.332,0-6.028,2.699-6.028,6.03l0.007,8.428
				l0.001,1.805c0,0.536,0.433,0.97,0.972,0.97h0.57v0.956c0,0.347,0.28,0.626,0.627,0.626h1.027c0.349,0,0.627-0.279,0.627-0.626
				v-0.956h6.909v0.956c0,0.347,0.282,0.626,0.627,0.626h1.028c0.347,0,0.627-0.279,0.627-0.626v-0.956h0.561
				c0.536,0,0.971-0.434,0.971-0.97v-1.805h0.013l-0.026-8.428C220.695,11.065,217.995,8.366,214.667,8.366z M208.754,23.772
				c-0.537,0-0.972-0.436-0.972-0.972s0.435-0.973,0.972-0.973c0.537,0,0.973,0.437,0.973,0.973S209.291,23.772,208.754,23.772z
				 M215.361,23.78l-3.938-0.002c-0.696,0-1.261-0.563-1.263-1.261v-0.286c0-0.212,0.174-0.385,0.385-0.385l5.692,0.002
				c0.211,0,0.385,0.173,0.385,0.385v0.285C216.622,23.214,216.058,23.78,215.361,23.78z M208.874,20.715
				c-0.651,0-1.18-0.528-1.18-1.181v-5.138c0-2.481,2.009-4.489,4.489-4.489h2.483c2.479,0,4.486,2.007,4.486,4.489v3.707
				l-0.416-0.003c-1.741-0.014-3.275-0.882-4.21-2.208l-1.337,0.788c1.208,1.782,3.246,2.958,5.588,2.967l0.371-0.003
				c-0.054,0.602-0.56,1.071-1.175,1.071H208.874z M218.127,23.772c-0.537,0-0.972-0.436-0.972-0.972s0.435-0.973,0.972-0.973
				s0.971,0.437,0.971,0.973S218.665,23.772,218.127,23.772z"/>
			<path fill-rule="evenodd" clip-rule="evenodd" d="M216.023,22.208h-5.263c-0.112,0-0.203,0.091-0.203,0.205v0.065
				c0,0.113,0.091,0.204,0.203,0.204h5.263c0.111,0,0.203-0.091,0.203-0.204v-0.065C216.226,22.299,216.134,22.208,216.023,22.208z"
				/>
			<path fill-rule="evenodd" clip-rule="evenodd" d="M215.708,22.945h-4.635c-0.111,0-0.204,0.091-0.204,0.205v0.064
				c0,0.113,0.093,0.203,0.204,0.203h4.635c0.112,0,0.205-0.09,0.205-0.203V23.15C215.913,23.037,215.82,22.945,215.708,22.945z"/>
		</g>
		<g>
			<path d="M23.885,71.47v1.09h-1.996v5.75h-1.245v-5.75h-1.943v-1.09H23.885z"/>
			<path d="M26.034,78.311h-1.256V71.47h2.294c1.511,0,2.468,0.494,2.468,1.893c0,1.029-0.617,1.585-1.183,1.812
				c0.279,0.103,0.413,0.276,0.566,0.627l1.132,2.51h-1.337l-0.987-2.161c-0.146-0.318-0.32-0.534-0.682-0.534h-1.016V78.311z
				 M27.062,74.638c0.742,0,1.205-0.4,1.205-1.183c0-0.874-0.535-0.987-1.513-0.987h-0.72v2.169H27.062z"/>
			<path d="M30.302,78.311l2.366-6.841h1.399l2.417,6.841h-1.337L34.531,76.5h-2.408l-0.606,1.811H30.302z M32.369,75.554h1.913
				l-0.924-2.932c-0.011,0-0.031,0-0.031,0L32.369,75.554z"/>
			<path d="M42.737,71.47v6.841h-1.205l-2.95-4.825c0,0-0.011,0-0.021,0v4.825h-1.236V71.47h1.266l2.881,4.753
				c0.01,0,0.01,0,0.021,0V71.47H42.737z"/>
			<path d="M44.219,76.747c0.389,0.248,1.194,0.597,1.901,0.597c0.546,0,1.101-0.175,1.101-0.947c0-0.647-0.585-0.843-1.306-1.039
				c-1.019-0.278-1.965-0.679-1.965-1.996c0-1.254,0.967-2.016,2.316-2.016c0.955,0,1.819,0.422,2.354,0.967l-0.668,0.833
				c-0.535-0.441-1.123-0.731-1.686-0.731c-0.463,0-1.01,0.196-1.01,0.834c0,0.639,0.596,0.834,1.369,1.07
				c0.935,0.299,1.923,0.7,1.923,2.026c0,1.359-0.967,2.088-2.448,2.088c-1.009,0-1.995-0.401-2.345-0.659L44.219,76.747z"/>
			<path d="M50.955,78.311h-1.254V71.47h2.355c1.511,0,2.437,0.72,2.437,2.099c0,1.565-1.11,2.345-2.665,2.345h-0.874V78.311z
				 M51.695,74.916c0.896,0,1.502-0.308,1.502-1.224c0-1.059-0.606-1.223-1.614-1.223h-0.628v2.447H51.695z"/>
			<path d="M58.205,78.434c-1.83,0-2.921-1.184-2.921-3.53c0-2.632,1.596-3.558,3.035-3.558c1.534,0,2.86,0.948,2.86,3.558
				C61.179,77.262,60.006,78.434,58.205,78.434z M58.278,77.395c1.245,0,1.626-1.224,1.626-2.458c0-1.048-0.33-2.53-1.647-2.53
				c-1.235,0-1.686,1.225-1.686,2.448C56.572,76.027,56.869,77.395,58.278,77.395z"/>
			<path d="M63.616,78.311h-1.255V71.47h2.293c1.512,0,2.47,0.494,2.47,1.893c0,1.029-0.617,1.585-1.183,1.812
				c0.278,0.103,0.411,0.276,0.565,0.627l1.132,2.51h-1.337l-0.988-2.161c-0.143-0.318-0.32-0.534-0.679-0.534h-1.019V78.311z
				 M64.644,74.638c0.742,0,1.204-0.4,1.204-1.183c0-0.874-0.535-0.987-1.512-0.987h-0.721v2.169H64.644z"/>
			<path d="M72.811,71.47v1.09h-1.997v5.75H69.57v-5.75h-1.943v-1.09H72.811z"/>
			<path d="M73.706,71.47h4.124v1.09h-2.87v1.718h2.459v1.091H74.96v1.851h2.942v1.09h-4.196V71.47z"/>
			<path d="M78.982,76.747c0.39,0.248,1.193,0.597,1.901,0.597c0.546,0,1.102-0.175,1.102-0.947c0-0.647-0.585-0.843-1.306-1.039
				c-1.019-0.278-1.967-0.679-1.967-1.996c0-1.254,0.969-2.016,2.314-2.016c0.958,0,1.822,0.422,2.357,0.967l-0.668,0.833
				c-0.536-0.441-1.122-0.731-1.689-0.731c-0.46,0-1.007,0.196-1.007,0.834c0,0.639,0.597,0.834,1.368,1.07
				c0.936,0.299,1.924,0.7,1.924,2.026c0,1.359-0.966,2.088-2.447,2.088c-1.009,0-1.997-0.401-2.346-0.659L78.982,76.747z"/>
			<path d="M87.817,71.47v4.608c0,1.009,0.565,1.306,1.348,1.306c0.761,0,1.285-0.411,1.285-1.253V71.47h1.255v4.835
				c0,1.346-1.049,2.129-2.581,2.129c-1.687,0-2.551-0.68-2.551-2.295V71.47H87.817z"/>
			<path d="M94.349,78.311h-1.256V71.47h2.293c1.512,0,2.468,0.494,2.468,1.893c0,1.029-0.616,1.585-1.182,1.812
				c0.279,0.103,0.412,0.276,0.566,0.627l1.131,2.51h-1.336l-0.989-2.161c-0.143-0.318-0.318-0.534-0.679-0.534h-1.017V78.311z
				 M95.377,74.638c0.74,0,1.203-0.4,1.203-1.183c0-0.874-0.535-0.987-1.512-0.987h-0.719v2.169H95.377z"/>
			<path d="M101.526,71.47c1.163,0,2.222,0.351,2.222,1.718c0,0.679-0.391,1.152-0.945,1.44c0.77,0.194,1.294,0.73,1.294,1.636
				c0,1.336-0.926,2.046-2.632,2.046h-2.254V71.47H101.526z M100.467,74.278h0.762c0.884,0,1.245-0.411,1.245-0.957
				c0-0.74-0.505-0.906-1.173-0.906h-0.833V74.278z M100.467,77.344h0.967c1.008,0,1.337-0.463,1.337-1.09
				c0-0.69-0.473-1.06-1.285-1.06h-1.019V77.344z"/>
			<path d="M104.582,78.311l2.366-6.841h1.399l2.418,6.841h-1.338l-0.618-1.811h-2.407l-0.607,1.811H104.582z M106.649,75.554h1.914
				l-0.928-2.932c-0.01,0-0.029,0-0.029,0L106.649,75.554z"/>
			<path d="M117.018,71.47v6.841h-1.203l-2.953-4.825c0,0-0.011,0-0.021,0v4.825h-1.234V71.47h1.266l2.879,4.753
				c0.01,0,0.01,0,0.021,0V71.47H117.018z"/>
			<path d="M121.122,78.434c-1.832,0-2.923-1.184-2.923-3.53c0-2.632,1.593-3.558,3.035-3.558c1.533,0,2.86,0.948,2.86,3.558
				C124.094,77.262,122.921,78.434,121.122,78.434z M121.191,77.395c1.246,0,1.627-1.224,1.627-2.458c0-1.048-0.329-2.53-1.646-2.53
				c-1.233,0-1.687,1.225-1.687,2.448C119.486,76.027,119.784,77.395,121.191,77.395z"/>
			<path d="M125.215,76.747c0.39,0.248,1.193,0.597,1.903,0.597c0.543,0,1.099-0.175,1.099-0.947c0-0.647-0.585-0.843-1.305-1.039
				c-1.021-0.278-1.966-0.679-1.966-1.996c0-1.254,0.967-2.016,2.313-2.016c0.958,0,1.821,0.422,2.356,0.967l-0.667,0.833
				c-0.536-0.441-1.123-0.731-1.689-0.731c-0.462,0-1.007,0.196-1.007,0.834c0,0.639,0.597,0.834,1.368,1.07
				c0.937,0.299,1.923,0.7,1.923,2.026c0,1.359-0.967,2.088-2.448,2.088c-1.008,0-1.996-0.401-2.346-0.659L125.215,76.747z"/>
			<path d="M132.856,71.47h2.231c1.966,0,3.21,1.04,3.21,3.179c0,2.695-1.502,3.662-3.159,3.662h-2.283V71.47z M134.111,77.323
				h1.048c1.152,0,1.873-0.843,1.873-2.49c0-1.85-0.893-2.365-2.005-2.365h-0.916V77.323z"/>
			<path d="M139.479,71.47h4.126v1.09h-2.87v1.718h2.458v1.091h-2.458v1.851h2.941v1.09h-4.197V71.47z"/>
			<path d="M146.885,71.47h1.255v5.75h2.901v1.09h-4.156V71.47z"/>
			<path d="M152.018,71.47h4.125v1.09h-2.871v1.718h2.459v1.091h-2.459v1.851h2.943v1.09h-4.197V71.47z"/>
			<path d="M157.271,78.311V71.47h1.256v6.841H157.271z"/>
			<path d="M161.244,78.311h-1.255V71.47h2.294c1.512,0,2.468,0.494,2.468,1.893c0,1.029-0.618,1.585-1.181,1.812
				c0.275,0.103,0.411,0.276,0.563,0.627l1.132,2.51h-1.336l-0.987-2.161c-0.146-0.318-0.32-0.534-0.681-0.534h-1.017V78.311z
				 M162.271,74.638c0.742,0,1.205-0.4,1.205-1.183c0-0.874-0.534-0.987-1.512-0.987h-0.72v2.169H162.271z"/>
			<path d="M166.128,78.311V71.47h1.256v6.841H166.128z"/>
			<path d="M168.247,78.311l2.366-6.841h1.399l2.417,6.841h-1.335l-0.619-1.811h-2.406l-0.609,1.811H168.247z M170.314,75.554h1.913
				l-0.924-2.932c-0.011,0-0.031,0-0.031,0L170.314,75.554z"/>
		</g>
	</g>
	<g>
		<polygon fill="#FFFFFF" points="283.953,28.721 291.094,28.721 291.094,50.418 302.036,50.418 302.036,56.793 283.953,56.793 		
			"/>
		<rect x="305.381" y="28.721" fill="#FFFFFF" width="7.1" height="28.072"/>
		<path fill="#FFFFFF" d="M339.275,54.431c-2.312,1.69-6.071,2.869-10.24,2.869c-7.72,0-12.675-4.728-12.675-14.48
			c0-10.934,6.686-14.605,12.634-14.605c3.55,0,7.267,0.968,10.403,5.573l-5.158,3.883c-1.86-2.491-3.47-3.379-5.328-3.379
			c-3.222,0-5.242,2.746-5.242,8.106c0,5.531,1.609,9.076,5.573,9.076c0.91,0,2.269-0.209,2.888-0.504v-8.654h7.145V54.431z"/>
		<path fill="#FFFFFF" d="M351.413,45.48h5.779l-2.767-10.006h-0.165L351.413,45.48z M341.541,56.793l8.921-28.072h7.967
			l9.498,28.072h-7.557l-1.855-5.994h-8.302l-1.857,5.994H341.541z"/>
		<rect x="369.329" y="42.229" fill="#FFFFFF" width="10.816" height="5.194"/>
		<polygon fill="#FFFFFF" points="404.007,28.721 404.007,35.052 396.412,35.052 396.412,56.793 389.348,56.793 389.348,35.052 
			382.042,35.052 382.042,28.721 		"/>
		<polygon fill="#FFFFFF" points="406.936,28.721 424.896,28.721 424.896,35.052 414.039,35.052 414.039,39.316 423.368,39.316 
			423.368,45.647 414.039,45.647 414.039,50.462 425.185,50.462 425.185,56.793 406.936,56.793 		"/>
		<path fill="#FFFFFF" d="M444.715,45.48h5.777l-2.765-10.006h-0.168L444.715,45.48z M434.844,56.793l8.919-28.072h7.966
			l9.499,28.072h-7.556l-1.861-5.994h-8.295l-1.858,5.994H434.844z"/>
		<polygon fill="#FFFFFF" points="492.271,28.721 492.271,35.052 484.674,35.052 484.674,56.793 477.615,56.793 477.615,35.052 
			470.306,35.052 470.306,28.721 		"/>
		<path fill="#FFFFFF" d="M502.097,28.721v18.362c0,3.208,1.608,4.182,3.882,4.182c2.147,0,3.673-1.311,3.673-3.969V28.721h7.103
			v19.417c0,5.7-4.459,9.164-10.941,9.164c-7.143,0-10.82-2.957-10.82-9.795V28.721H502.097z"/>
		<path fill="#FFFFFF" d="M528.27,51.179h2.767c3.673,0,5.985-2.869,5.985-8.655c0-6.5-3.012-8.146-6.441-8.146h-2.311V51.179z
			 M521.17,28.721h9.618c8.218,0,13.336,4.137,13.336,13.085c0,10.976-6.276,14.986-13.171,14.986h-9.783V28.721z"/>
		<path fill="#FFFFFF" d="M559.439,51.306c3.8,0,4.914-4.096,4.914-8.358c0-3.546-0.91-8.698-5.077-8.698
			c-3.716,0-5.036,4.098-5.036,8.276C554.241,46.455,555.065,51.306,559.439,51.306 M559.149,57.302
			c-7.678,0-12.219-4.939-12.219-14.479c0-10.81,6.77-14.608,12.757-14.608c6.36,0,11.891,3.882,11.891,14.608
			C571.579,52.403,566.625,57.302,559.149,57.302"/>
		<path fill="#FFFFFF" d="M576.489,50.799c2.313,0,3.511,1.309,3.511,3.296c0,1.896-1.156,3.374-3.386,3.374
			c-2.313,0-3.468-1.392-3.468-3.335C573.146,52.278,574.384,50.799,576.489,50.799"/>
	</g>
</g>
</svg>
